<svg width="29" height="28" viewBox="0 0 29 28" fill="none" xmlns="http://www.w3.org/2000/svg">
<path d="M8.41726 21L8.64453 19.7216L14.2979 14.4659C14.9608 13.8504 15.5124 13.313 15.9528 12.8537C16.3978 12.3944 16.7435 11.9635 16.9897 11.5611C17.2406 11.1586 17.404 10.7348 17.4798 10.2898C17.565 9.77841 17.52 9.3357 17.3448 8.96165C17.1696 8.58759 16.8926 8.29877 16.5138 8.09517C16.1351 7.89157 15.6805 7.78977 15.1502 7.78977C14.5915 7.78977 14.0825 7.90578 13.6232 8.13778C13.1639 8.36506 12.7828 8.68703 12.4798 9.10369C12.1767 9.51562 11.9779 9.99621 11.8832 10.5455H10.207C10.3491 9.69318 10.6734 8.94508 11.18 8.30114C11.6914 7.6572 12.3188 7.1553 13.0621 6.79545C13.8103 6.43561 14.6104 6.25568 15.4627 6.25568C16.315 6.25568 17.0371 6.43561 17.6289 6.79545C18.2208 7.1553 18.6493 7.64062 18.9144 8.25142C19.1796 8.86222 19.2506 9.54167 19.1275 10.2898C19.0328 10.8295 18.8458 11.3527 18.5664 11.8594C18.2871 12.366 17.8585 12.9318 17.2809 13.5568C16.708 14.1771 15.9315 14.9347 14.9513 15.8295L11.1161 19.3239L11.0877 19.4375H17.8491L17.5934 21H8.41726ZM12.2383 27.392C10.7184 27.392 9.30978 27.16 8.01243 26.696C6.71508 26.232 5.56214 25.5786 4.55362 24.7358C3.5451 23.893 2.71413 22.8963 2.06072 21.7457C1.40732 20.5999 0.96224 19.3404 0.725497 17.9673C0.488755 16.5895 0.495857 15.1383 0.746804 13.6136C0.997751 12.1174 1.46177 10.6922 2.13885 9.33807C2.82067 7.9839 3.67057 6.74337 4.68857 5.61648C5.70656 4.48485 6.84766 3.50473 8.11186 2.67614C9.3808 1.84754 10.7302 1.20597 12.1602 0.75142C13.5901 0.29214 15.0555 0.0625 16.5565 0.0625C18.0764 0.0625 19.485 0.294508 20.7823 0.758523C22.0844 1.22254 23.2397 1.87595 24.2482 2.71875C25.2567 3.56155 26.0877 4.55824 26.7411 5.70881C27.3945 6.85464 27.8372 8.11648 28.0692 9.49432C28.306 10.8674 28.2989 12.3163 28.0479 13.8409C27.8017 15.3371 27.3377 16.7623 26.6559 18.1165C25.9788 19.4706 25.1313 20.7112 24.1133 21.8381C23.0953 22.9697 21.9518 23.9498 20.6829 24.7784C19.4187 25.607 18.0692 26.2486 16.6346 26.7031C15.2047 27.1624 13.7392 27.392 12.2383 27.392ZM12.2383 25.7443C13.5782 25.7443 14.8874 25.5384 16.1658 25.1264C17.449 24.7145 18.6587 24.1345 19.7951 23.3864C20.9362 22.643 21.9637 21.7647 22.8775 20.7514C23.796 19.7334 24.5607 18.6184 25.1715 17.4062C25.7871 16.1894 26.2037 14.911 26.4215 13.571C26.6441 12.25 26.6559 10.9953 26.457 9.80682C26.2582 8.61837 25.8794 7.53172 25.3207 6.54688C24.762 5.55729 24.0494 4.70265 23.1829 3.98295C22.3211 3.25852 21.3292 2.69981 20.207 2.30682C19.0896 1.90909 17.8728 1.71023 16.5565 1.71023C15.2212 1.71023 13.9121 1.91619 12.6289 2.32812C11.3458 2.74006 10.136 3.32008 8.99964 4.06818C7.86328 4.81155 6.83582 5.69223 5.91726 6.71023C5.00343 7.72348 4.23875 8.83854 3.62322 10.0554C3.01243 11.2675 2.59576 12.5436 2.37322 13.8835C2.15542 15.2045 2.14595 16.4593 2.34482 17.6477C2.54368 18.8362 2.9201 19.9252 3.47408 20.9148C4.03279 21.8996 4.74302 22.7519 5.60476 23.4716C6.47124 24.196 7.46319 24.7547 8.58061 25.1477C9.70277 25.5455 10.922 25.7443 12.2383 25.7443Z" fill="black"/>
</svg>
