<svg width="29" height="28" viewBox="0 0 29 28" fill="none" xmlns="http://www.w3.org/2000/svg">
<path d="M8.84339 17.3636H10.6332C10.6048 17.8561 10.7066 18.2727 10.9386 18.6136C11.1753 18.9498 11.5067 19.2055 11.9329 19.3807C12.3638 19.5511 12.8585 19.6364 13.4173 19.6364C14.0233 19.6364 14.5868 19.5346 15.1076 19.331C15.6284 19.1226 16.064 18.8172 16.4144 18.4148C16.7648 18.0076 16.9873 17.5057 17.082 16.9091C17.1673 16.3883 17.1223 15.9006 16.9471 15.446C16.7766 14.9915 16.4405 14.6245 15.9386 14.3452C15.4414 14.0658 14.743 13.9261 13.8434 13.9261H12.6786L12.9343 12.5057L17.2809 8.13068V8.01705H11.1161L11.3718 6.45455H19.9798L19.7809 7.73295L15.065 12.4489V12.5625C15.69 12.5909 16.2534 12.7187 16.7553 12.946C17.262 13.1733 17.6857 13.4834 18.0266 13.8764C18.3675 14.2647 18.609 14.7169 18.7511 15.233C18.8931 15.7443 18.9144 16.303 18.815 16.9091C18.6824 17.733 18.351 18.4692 17.8207 19.1179C17.2904 19.7618 16.6204 20.2708 15.8107 20.6449C15.0011 21.0142 14.1085 21.1989 13.1332 21.1989C12.2714 21.1989 11.502 21.0473 10.8249 20.7443C10.1526 20.4413 9.63411 20.0033 9.26953 19.4304C8.90968 18.8575 8.76764 18.1686 8.84339 17.3636ZM12.2383 27.392C10.7184 27.392 9.30978 27.16 8.01243 26.696C6.71508 26.232 5.56214 25.5786 4.55362 24.7358C3.5451 23.893 2.71413 22.8963 2.06072 21.7457C1.40732 20.5999 0.96224 19.3404 0.725497 17.9673C0.488755 16.5895 0.495857 15.1383 0.746804 13.6136C0.997751 12.1174 1.46177 10.6922 2.13885 9.33807C2.82067 7.9839 3.67057 6.74337 4.68857 5.61648C5.70656 4.48485 6.84766 3.50473 8.11186 2.67614C9.3808 1.84754 10.7302 1.20597 12.1602 0.75142C13.5901 0.29214 15.0555 0.0625 16.5565 0.0625C18.0764 0.0625 19.485 0.294508 20.7823 0.758523C22.0844 1.22254 23.2397 1.87595 24.2482 2.71875C25.2567 3.56155 26.0877 4.55824 26.7411 5.70881C27.3945 6.85464 27.8372 8.11648 28.0692 9.49432C28.306 10.8674 28.2989 12.3163 28.0479 13.8409C27.8017 15.3371 27.3377 16.7623 26.6559 18.1165C25.9788 19.4706 25.1313 20.7112 24.1133 21.8381C23.0953 22.9697 21.9518 23.9498 20.6829 24.7784C19.4187 25.607 18.0692 26.2486 16.6346 26.7031C15.2047 27.1624 13.7392 27.392 12.2383 27.392ZM12.2383 25.7443C13.5782 25.7443 14.8874 25.5384 16.1658 25.1264C17.449 24.7145 18.6587 24.1345 19.7951 23.3864C20.9362 22.643 21.9637 21.7647 22.8775 20.7514C23.796 19.7334 24.5607 18.6184 25.1715 17.4062C25.7871 16.1894 26.2037 14.911 26.4215 13.571C26.6441 12.25 26.6559 10.9953 26.457 9.80682C26.2582 8.61837 25.8794 7.53172 25.3207 6.54688C24.762 5.55729 24.0494 4.70265 23.1829 3.98295C22.3211 3.25852 21.3292 2.69981 20.207 2.30682C19.0896 1.90909 17.8728 1.71023 16.5565 1.71023C15.2212 1.71023 13.9121 1.91619 12.6289 2.32812C11.3458 2.74006 10.136 3.32008 8.99964 4.06818C7.86328 4.81155 6.83582 5.69223 5.91726 6.71023C5.00343 7.72348 4.23875 8.83854 3.62322 10.0554C3.01243 11.2675 2.59576 12.5436 2.37322 13.8835C2.15542 15.2045 2.14595 16.4593 2.34482 17.6477C2.54368 18.8362 2.9201 19.9252 3.47408 20.9148C4.03279 21.8996 4.74302 22.7519 5.60476 23.4716C6.47124 24.196 7.46319 24.7547 8.58061 25.1477C9.70277 25.5455 10.922 25.7443 12.2383 25.7443Z" fill="black"/>
</svg>
