<svg width="29" height="28" viewBox="0 0 29 28" fill="none" xmlns="http://www.w3.org/2000/svg">
<path d="M13.0621 21.1989C12.2288 21.1989 11.5044 21.0331 10.8888 20.7017C10.2733 20.3703 9.81167 19.9157 9.50391 19.3381C9.19614 18.7604 9.08487 18.1023 9.1701 17.3636H10.8746C10.832 18.017 11.0427 18.5592 11.5067 18.9901C11.9755 19.4209 12.5792 19.6364 13.3178 19.6364C13.9144 19.6364 14.4684 19.4967 14.9798 19.2173C15.4959 18.938 15.9267 18.5545 16.2724 18.0668C16.6228 17.5791 16.85 17.0227 16.9542 16.3977C17.0584 15.7633 17.0134 15.1951 16.8192 14.6932C16.6251 14.1913 16.3103 13.7959 15.8746 13.5071C15.439 13.2183 14.9087 13.0739 14.2837 13.0739C13.8434 13.0739 13.377 13.1449 12.8846 13.2869C12.3969 13.4242 11.9826 13.5994 11.6417 13.8125L10.0224 13.6136L12.0962 6.45455H19.6531L19.3974 8.01705H13.3178L12.0962 12.3068H12.1815C12.5224 12.0653 12.9272 11.8688 13.396 11.7173C13.8694 11.5611 14.3548 11.483 14.8519 11.483C15.7421 11.483 16.4996 11.696 17.1246 12.1222C17.7544 12.5436 18.2066 13.1236 18.4812 13.8622C18.7605 14.5961 18.8197 15.4318 18.6587 16.3693C18.5072 17.2973 18.1639 18.1259 17.6289 18.8551C17.0986 19.5795 16.4357 20.1525 15.6403 20.5739C14.8496 20.9905 13.9902 21.1989 13.0621 21.1989ZM12.2383 27.392C10.7184 27.392 9.30978 27.16 8.01243 26.696C6.71508 26.232 5.56214 25.5786 4.55362 24.7358C3.5451 23.893 2.71413 22.8963 2.06072 21.7457C1.40732 20.5999 0.96224 19.3404 0.725497 17.9673C0.488755 16.5895 0.495857 15.1383 0.746804 13.6136C0.997751 12.1174 1.46177 10.6922 2.13885 9.33807C2.82067 7.9839 3.67057 6.74337 4.68857 5.61648C5.70656 4.48485 6.84766 3.50473 8.11186 2.67614C9.3808 1.84754 10.7302 1.20597 12.1602 0.75142C13.5901 0.29214 15.0555 0.0625 16.5565 0.0625C18.0764 0.0625 19.485 0.294508 20.7823 0.758523C22.0844 1.22254 23.2397 1.87595 24.2482 2.71875C25.2567 3.56155 26.0877 4.55824 26.7411 5.70881C27.3945 6.85464 27.8372 8.11648 28.0692 9.49432C28.306 10.8674 28.2989 12.3163 28.0479 13.8409C27.8017 15.3371 27.3377 16.7623 26.6559 18.1165C25.9788 19.4706 25.1313 20.7112 24.1133 21.8381C23.0953 22.9697 21.9518 23.9498 20.6829 24.7784C19.4187 25.607 18.0692 26.2486 16.6346 26.7031C15.2047 27.1624 13.7392 27.392 12.2383 27.392ZM12.2383 25.7443C13.5782 25.7443 14.8874 25.5384 16.1658 25.1264C17.449 24.7145 18.6587 24.1345 19.7951 23.3864C20.9362 22.643 21.9637 21.7647 22.8775 20.7514C23.796 19.7334 24.5607 18.6184 25.1715 17.4062C25.7871 16.1894 26.2037 14.911 26.4215 13.571C26.6441 12.25 26.6559 10.9953 26.457 9.80682C26.2582 8.61837 25.8794 7.53172 25.3207 6.54688C24.762 5.55729 24.0494 4.70265 23.1829 3.98295C22.3211 3.25852 21.3292 2.69981 20.207 2.30682C19.0896 1.90909 17.8728 1.71023 16.5565 1.71023C15.2212 1.71023 13.9121 1.91619 12.6289 2.32812C11.3458 2.74006 10.136 3.32008 8.99964 4.06818C7.86328 4.81155 6.83582 5.69223 5.91726 6.71023C5.00343 7.72348 4.23875 8.83854 3.62322 10.0554C3.01243 11.2675 2.59576 12.5436 2.37322 13.8835C2.15542 15.2045 2.14595 16.4593 2.34482 17.6477C2.54368 18.8362 2.9201 19.9252 3.47408 20.9148C4.03279 21.8996 4.74302 22.7519 5.60476 23.4716C6.47124 24.196 7.46319 24.7547 8.58061 25.1477C9.70277 25.5455 10.922 25.7443 12.2383 25.7443Z" fill="black"/>
</svg>
