<svg width="172" height="28" viewBox="0 0 172 28" fill="none" xmlns="http://www.w3.org/2000/svg">
<path d="M8.78309 21L11.1979 6.45455H16.2831C17.2964 6.45455 18.1036 6.62973 18.705 6.98011C19.3063 7.32576 19.7182 7.79214 19.9408 8.37926C20.1633 8.96165 20.213 9.60795 20.0899 10.3182C19.9857 10.9432 19.7892 11.4593 19.5004 11.8665C19.2163 12.2737 18.8754 12.5956 18.4777 12.8324C18.0847 13.0691 17.6751 13.2443 17.249 13.358L17.2206 13.5C17.6562 13.5284 18.0752 13.6847 18.4777 13.9688C18.8802 14.2528 19.1903 14.66 19.4081 15.1903C19.6259 15.7206 19.6732 16.3693 19.5501 17.1364C19.427 17.8655 19.15 18.5213 18.7192 19.1037C18.2883 19.6861 17.687 20.1477 16.9152 20.4886C16.1434 20.8295 15.1846 21 14.0388 21H8.78309ZM10.8001 19.4375H14.2945C15.445 19.4375 16.2997 19.215 16.8584 18.7699C17.4218 18.3201 17.7604 17.7756 17.874 17.1364C17.9498 16.6439 17.8953 16.1894 17.7107 15.7727C17.5307 15.3513 17.2301 15.0152 16.8087 14.7642C16.392 14.5085 15.8664 14.3807 15.232 14.3807H11.6524L10.8001 19.4375ZM11.9081 12.8466H15.1751C15.7054 12.8466 16.2026 12.7424 16.6666 12.5341C17.1306 12.3258 17.5189 12.0322 17.8314 11.6534C18.1439 11.2746 18.338 10.8295 18.4138 10.3182C18.5274 9.67898 18.3996 9.13684 18.0303 8.69176C17.6609 8.24195 16.9933 8.01705 16.0274 8.01705H12.7035L11.9081 12.8466ZM12.3484 27.392C10.8285 27.392 9.41993 27.16 8.12258 26.696C6.82523 26.232 5.6723 25.5786 4.66378 24.7358C3.65525 23.893 2.82429 22.8963 2.17088 21.7457C1.51747 20.5999 1.07239 19.3404 0.83565 17.9673C0.598908 16.5895 0.60601 15.1383 0.856957 13.6136C1.1079 12.1174 1.57192 10.6922 2.249 9.33807C2.93082 7.9839 3.78073 6.74337 4.79872 5.61648C5.81671 4.48485 6.95781 3.50473 8.22201 2.67614C9.49095 1.84754 10.8404 1.20597 12.2703 0.75142C13.7002 0.29214 15.1657 0.0625 16.6666 0.0625C18.1865 0.0625 19.5951 0.294508 20.8925 0.758523C22.1946 1.22254 23.3499 1.87595 24.3584 2.71875C25.3669 3.56155 26.1979 4.55824 26.8513 5.70881C27.5047 6.85464 27.9474 8.11648 28.1794 9.49432C28.4161 10.8674 28.409 12.3163 28.1581 13.8409C27.9119 15.3371 27.4479 16.7623 26.766 18.1165C26.089 19.4706 25.2414 20.7112 24.2234 21.8381C23.2054 22.9697 22.062 23.9498 20.793 24.7784C19.5288 25.607 18.1794 26.2486 16.7447 26.7031C15.3148 27.1624 13.8494 27.392 12.3484 27.392ZM12.3484 25.7443C13.6884 25.7443 14.9976 25.5384 16.276 25.1264C17.5591 24.7145 18.7689 24.1345 19.9053 23.3864C21.0464 22.643 22.0738 21.7647 22.9876 20.7514C23.9062 19.7334 24.6709 18.6184 25.2817 17.4062C25.8972 16.1894 26.3139 14.911 26.5317 13.571C26.7542 12.25 26.766 10.9953 26.5672 9.80682C26.3683 8.61837 25.9895 7.53172 25.4308 6.54688C24.8721 5.55729 24.1595 4.70265 23.293 3.98295C22.4313 3.25852 21.4393 2.69981 20.3172 2.30682C19.1998 1.90909 17.9829 1.71023 16.6666 1.71023C15.3314 1.71023 14.0222 1.91619 12.7391 2.32812C11.4559 2.74006 10.2462 3.32008 9.1098 4.06818C7.97343 4.81155 6.94597 5.69223 6.02741 6.71023C5.11359 7.72348 4.34891 8.83854 3.73338 10.0554C3.12258 11.2675 2.70592 12.5436 2.48338 13.8835C2.26557 15.2045 2.25611 16.4593 2.45497 17.6477C2.65383 18.8362 3.03025 19.9252 3.58423 20.9148C4.14294 21.8996 4.85317 22.7519 5.71491 23.4716C6.58139 24.196 7.57334 24.7547 8.69076 25.1477C9.81292 25.5455 11.0321 25.7443 12.3484 25.7443ZM35.9999 6.45455H38.017L40.9431 13.2443H41.1136L46.2556 6.45455H48.2726L41.5965 15.0057L40.6022 21H38.8408L39.8351 15.0057L35.9999 6.45455ZM38.7414 27.392C37.2215 27.392 35.8129 27.16 34.5155 26.696C33.2182 26.232 32.0653 25.5786 31.0567 24.7358C30.0482 23.893 29.2172 22.8963 28.5638 21.7457C27.9104 20.5999 27.4654 19.3404 27.2286 17.9673C26.9919 16.5895 26.999 15.1383 27.2499 13.6136C27.5009 12.1174 27.9649 10.6922 28.642 9.33807C29.3238 7.9839 30.1737 6.74337 31.1917 5.61648C32.2097 4.48485 33.3508 3.50473 34.615 2.67614C35.8839 1.84754 37.2333 1.20597 38.6633 0.75142C40.0932 0.29214 41.5586 0.0625 43.0596 0.0625C44.5795 0.0625 45.9881 0.294508 47.2854 0.758523C48.5875 1.22254 49.7428 1.87595 50.7513 2.71875C51.7599 3.56155 52.5908 4.55824 53.2442 5.70881C53.8976 6.85464 54.3404 8.11648 54.5724 9.49432C54.8091 10.8674 54.802 12.3163 54.5511 13.8409C54.3048 15.3371 53.8408 16.7623 53.159 18.1165C52.4819 19.4706 51.6344 20.7112 50.6164 21.8381C49.5984 22.9697 48.4549 23.9498 47.186 24.7784C45.9218 25.607 44.5724 26.2486 43.1377 26.7031C41.7078 27.1624 40.2423 27.392 38.7414 27.392ZM38.7414 25.7443C40.0814 25.7443 41.3905 25.5384 42.669 25.1264C43.9521 24.7145 45.1618 24.1345 46.2982 23.3864C47.4393 22.643 48.4668 21.7647 49.3806 20.7514C50.2992 19.7334 51.0638 18.6184 51.6746 17.4062C52.2902 16.1894 52.7068 14.911 52.9246 13.571C53.1472 12.25 53.159 10.9953 52.9601 9.80682C52.7613 8.61837 52.3825 7.53172 51.8238 6.54688C51.2651 5.55729 50.5525 4.70265 49.686 3.98295C48.8243 3.25852 47.8323 2.69981 46.7101 2.30682C45.5927 1.90909 44.3759 1.71023 43.0596 1.71023C41.7243 1.71023 40.4152 1.91619 39.132 2.32812C37.8489 2.74006 36.6391 3.32008 35.5028 4.06818C34.3664 4.81155 33.3389 5.69223 32.4204 6.71023C31.5065 7.72348 30.7419 8.83854 30.1263 10.0554C29.5155 11.2675 29.0989 12.5436 28.8763 13.8835C28.6585 15.2045 28.6491 16.4593 28.8479 17.6477C29.0468 18.8362 29.4232 19.9252 29.9772 20.9148C30.5359 21.8996 31.2461 22.7519 32.1079 23.4716C32.9743 24.196 33.9663 24.7547 35.0837 25.1477C36.2059 25.5455 37.4251 25.7443 38.7414 25.7443ZM76.3935 21H74.5469L82.3026 6.45455H84.1207L87.0469 21H85.2003L82.8991 8.75568H82.7855L76.3935 21ZM78.0128 15.3182H85.456L85.2003 16.8807H77.7571L78.0128 15.3182ZM69.1065 26.9091C68.3111 26.9091 67.7382 26.7008 67.3878 26.2841C67.0374 25.8674 66.9285 25.2614 67.0611 24.4659L70.6122 2.98864C70.7495 2.19318 71.0597 1.58712 71.5426 1.17045C72.0303 0.753788 72.6719 0.545455 73.4673 0.545455H94.9446C95.7401 0.545455 96.3106 0.753788 96.6562 1.17045C97.0066 1.58712 97.1132 2.19318 96.9759 2.98864L93.4247 24.4659C93.2921 25.2614 92.9844 25.8674 92.5014 26.2841C92.0185 26.7008 91.3793 26.9091 90.5838 26.9091H69.1065ZM69.1349 25.2614H91.0952C91.2609 25.2614 91.4006 25.2093 91.5142 25.1051C91.6326 25.0009 91.706 24.8684 91.7344 24.7074L95.3707 2.74716C95.3991 2.58144 95.3707 2.44886 95.2855 2.34943C95.205 2.24526 95.0819 2.19318 94.9162 2.19318H72.956C72.795 2.19318 72.6529 2.24526 72.5298 2.34943C72.4067 2.44886 72.331 2.58144 72.3026 2.74716L68.6662 24.7074C68.6378 24.8684 68.6686 25.0009 68.7585 25.1051C68.8485 25.2093 68.974 25.2614 69.1349 25.2614ZM101.215 21L103.63 6.45455H112.408L112.152 8.01705H105.135L104.311 12.9318H110.874L110.618 14.4943H104.056L103.232 19.4375H110.363L110.107 21H101.215ZM93.8995 26.9091C93.104 26.9091 92.5311 26.7008 92.1808 26.2841C91.8304 25.8674 91.7215 25.2614 91.854 24.4659L95.4052 2.98864C95.5425 2.19318 95.8526 1.58712 96.3356 1.17045C96.8233 0.753788 97.4648 0.545455 98.2603 0.545455H119.738C120.533 0.545455 121.104 0.753788 121.449 1.17045C121.8 1.58712 121.906 2.19318 121.769 2.98864L118.218 24.4659C118.085 25.2614 117.777 25.8674 117.294 26.2841C116.811 26.7008 116.172 26.9091 115.377 26.9091H93.8995ZM93.9279 25.2614H115.888C116.054 25.2614 116.194 25.2093 116.307 25.1051C116.426 25.0009 116.499 24.8684 116.527 24.7074L120.164 2.74716C120.192 2.58144 120.164 2.44886 120.078 2.34943C119.998 2.24526 119.875 2.19318 119.709 2.19318H97.7489C97.5879 2.19318 97.4459 2.24526 97.3228 2.34943C97.1997 2.44886 97.1239 2.58144 97.0955 2.74716L93.4592 24.7074C93.4308 24.8684 93.4615 25.0009 93.5515 25.1051C93.6415 25.2093 93.7669 25.2614 93.9279 25.2614ZM125.425 21L125.653 19.7216L135.425 8.01705H127.499L127.755 6.45455H137.783L137.585 7.73295L127.783 19.4375H135.71L135.454 21H125.425ZM118.692 26.9091C117.897 26.9091 117.324 26.7008 116.974 26.2841C116.623 25.8674 116.514 25.2614 116.647 24.4659L120.198 2.98864C120.335 2.19318 120.646 1.58712 121.129 1.17045C121.616 0.753788 122.258 0.545455 123.053 0.545455H144.531C145.326 0.545455 145.897 0.753788 146.242 1.17045C146.593 1.58712 146.699 2.19318 146.562 2.98864L143.011 24.4659C142.878 25.2614 142.57 25.8674 142.087 26.2841C141.604 26.7008 140.965 26.9091 140.17 26.9091H118.692ZM118.721 25.2614H140.681C140.847 25.2614 140.987 25.2093 141.1 25.1051C141.219 25.0009 141.292 24.8684 141.32 24.7074L144.957 2.74716C144.985 2.58144 144.957 2.44886 144.871 2.34943C144.791 2.24526 144.668 2.19318 144.502 2.19318H122.542C122.381 2.19318 122.239 2.24526 122.116 2.34943C121.993 2.44886 121.917 2.58144 121.888 2.74716L118.252 24.7074C118.224 24.8684 118.254 25.0009 118.344 25.1051C118.434 25.2093 118.56 25.2614 118.721 25.2614ZM150.772 21H148.926L156.681 6.45455H158.5L161.426 21H159.579L157.278 8.75568H157.164L150.772 21ZM152.392 15.3182H159.835L159.579 16.8807H152.136L152.392 15.3182ZM143.485 26.9091C142.69 26.9091 142.117 26.7008 141.767 26.2841C141.416 25.8674 141.307 25.2614 141.44 24.4659L144.991 2.98864C145.128 2.19318 145.439 1.58712 145.922 1.17045C146.409 0.753788 147.051 0.545455 147.846 0.545455H169.324C170.119 0.545455 170.69 0.753788 171.035 1.17045C171.386 1.58712 171.492 2.19318 171.355 2.98864L167.804 24.4659C167.671 25.2614 167.363 25.8674 166.88 26.2841C166.397 26.7008 165.758 26.9091 164.963 26.9091H143.485ZM143.514 25.2614H165.474C165.64 25.2614 165.779 25.2093 165.893 25.1051C166.011 25.0009 166.085 24.8684 166.113 24.7074L169.75 2.74716C169.778 2.58144 169.75 2.44886 169.664 2.34943C169.584 2.24526 169.461 2.19318 169.295 2.19318H147.335C147.174 2.19318 147.032 2.24526 146.909 2.34943C146.786 2.44886 146.71 2.58144 146.681 2.74716L143.045 24.7074C143.017 24.8684 143.047 25.0009 143.137 25.1051C143.227 25.2093 143.353 25.2614 143.514 25.2614Z" fill="black"/>
</svg>
