<svg width="161" height="28" viewBox="0 0 161 28" fill="none" xmlns="http://www.w3.org/2000/svg">
<path d="M16.5206 6.45455L14.1058 21H12.3445L14.7592 6.45455H16.5206ZM12.2734 27.392C10.7536 27.392 9.34493 27.16 8.04759 26.696C6.75024 26.232 5.5973 25.5786 4.58878 24.7358C3.58026 23.893 2.74929 22.8963 2.09588 21.7457C1.44247 20.5999 0.997396 19.3404 0.760653 17.9673C0.523911 16.5895 0.531013 15.1383 0.78196 13.6136C1.03291 12.1174 1.49692 10.6922 2.17401 9.33807C2.85582 7.9839 3.70573 6.74337 4.72372 5.61648C5.74171 4.48485 6.88281 3.50473 8.14702 2.67614C9.41596 1.84754 10.7654 1.20597 12.1953 0.75142C13.6252 0.29214 15.0907 0.0625 16.5916 0.0625C18.1115 0.0625 19.5201 0.294508 20.8175 0.758523C22.1196 1.22254 23.2749 1.87595 24.2834 2.71875C25.2919 3.56155 26.1229 4.55824 26.7763 5.70881C27.4297 6.85464 27.8724 8.11648 28.1044 9.49432C28.3411 10.8674 28.334 12.3163 28.0831 13.8409C27.8369 15.3371 27.3729 16.7623 26.6911 18.1165C26.014 19.4706 25.1664 20.7112 24.1484 21.8381C23.1304 22.9697 21.987 23.9498 20.718 24.7784C19.4538 25.607 18.1044 26.2486 16.6697 26.7031C15.2398 27.1624 13.7744 27.392 12.2734 27.392ZM12.2734 25.7443C13.6134 25.7443 14.9226 25.5384 16.201 25.1264C17.4841 24.7145 18.6939 24.1345 19.8303 23.3864C20.9714 22.643 21.9988 21.7647 22.9126 20.7514C23.8312 19.7334 24.5959 18.6184 25.2067 17.4062C25.8222 16.1894 26.2389 14.911 26.4567 13.571C26.6792 12.25 26.6911 10.9953 26.4922 9.80682C26.2933 8.61837 25.9145 7.53172 25.3558 6.54688C24.7971 5.55729 24.0845 4.70265 23.218 3.98295C22.3563 3.25852 21.3643 2.69981 20.2422 2.30682C19.1248 1.90909 17.9079 1.71023 16.5916 1.71023C15.2564 1.71023 13.9472 1.91619 12.6641 2.32812C11.3809 2.74006 10.1712 3.32008 9.0348 4.06818C7.89844 4.81155 6.87098 5.69223 5.95241 6.71023C5.03859 7.72348 4.27391 8.83854 3.65838 10.0554C3.04759 11.2675 2.63092 12.5436 2.40838 13.8835C2.19058 15.2045 2.18111 16.4593 2.37997 17.6477C2.57884 18.8362 2.95526 19.9252 3.50923 20.9148C4.06795 21.8996 4.77817 22.7519 5.63991 23.4716C6.50639 24.196 7.49834 24.7547 8.61577 25.1477C9.73793 25.5455 10.9571 25.7443 12.2734 25.7443ZM35.2573 21L37.6721 6.45455H46.3937L46.138 8.01705H39.1778L38.3539 12.9318H44.6607L44.405 14.4943H38.0982L37.0187 21H35.2573ZM38.6664 27.392C37.1465 27.392 35.7379 27.16 34.4406 26.696C33.1432 26.232 31.9903 25.5786 30.9818 24.7358C29.9732 23.893 29.1423 22.8963 28.4889 21.7457C27.8354 20.5999 27.3904 19.3404 27.1536 17.9673C26.9169 16.5895 26.924 15.1383 27.1749 13.6136C27.4259 12.1174 27.8899 10.6922 28.567 9.33807C29.2488 7.9839 30.0987 6.74337 31.1167 5.61648C32.1347 4.48485 33.2758 3.50473 34.54 2.67614C35.8089 1.84754 37.1584 1.20597 38.5883 0.75142C40.0182 0.29214 41.4836 0.0625 42.9846 0.0625C44.5045 0.0625 45.9131 0.294508 47.2104 0.758523C48.5125 1.22254 49.6678 1.87595 50.6764 2.71875C51.6849 3.56155 52.5158 4.55824 53.1693 5.70881C53.8227 6.85464 54.2654 8.11648 54.4974 9.49432C54.7341 10.8674 54.727 12.3163 54.4761 13.8409C54.2299 15.3371 53.7658 16.7623 53.084 18.1165C52.4069 19.4706 51.5594 20.7112 50.5414 21.8381C49.5234 22.9697 48.38 23.9498 47.111 24.7784C45.8468 25.607 44.4974 26.2486 43.0627 26.7031C41.6328 27.1624 40.1674 27.392 38.6664 27.392ZM38.6664 25.7443C40.0064 25.7443 41.3156 25.5384 42.594 25.1264C43.8771 24.7145 45.0869 24.1345 46.2232 23.3864C47.3643 22.643 48.3918 21.7647 49.3056 20.7514C50.2242 19.7334 50.9889 18.6184 51.5997 17.4062C52.2152 16.1894 52.6318 14.911 52.8497 13.571C53.0722 12.25 53.084 10.9953 52.8852 9.80682C52.6863 8.61837 52.3075 7.53172 51.7488 6.54688C51.1901 5.55729 50.4775 4.70265 49.611 3.98295C48.7493 3.25852 47.7573 2.69981 46.6352 2.30682C45.5177 1.90909 44.3009 1.71023 42.9846 1.71023C41.6494 1.71023 40.3402 1.91619 39.057 2.32812C37.7739 2.74006 36.5641 3.32008 35.4278 4.06818C34.2914 4.81155 33.264 5.69223 32.3454 6.71023C31.4316 7.72348 30.6669 8.83854 30.0514 10.0554C29.4406 11.2675 29.0239 12.5436 28.8014 13.8835C28.5836 15.2045 28.5741 16.4593 28.7729 17.6477C28.9718 18.8362 29.3482 19.9252 29.9022 20.9148C30.4609 21.8996 31.1711 22.7519 32.0329 23.4716C32.8994 24.196 33.8913 24.7547 35.0087 25.1477C36.1309 25.5455 37.3501 25.7443 38.6664 25.7443ZM61.4088 21L63.8236 6.45455H68.7383C69.8747 6.45455 70.7743 6.64631 71.4372 7.02983C72.1048 7.41335 72.557 7.94129 72.7937 8.61364C73.0352 9.28598 73.0849 10.053 72.9429 10.9148C72.8008 11.767 72.4978 12.5246 72.0338 13.1875C71.5745 13.8504 70.9495 14.3712 70.1588 14.75C69.3728 15.1288 68.4164 15.3182 67.2895 15.3182H63.3122L63.5963 13.7273H67.5167C68.2933 13.7273 68.9372 13.6136 69.4486 13.3864C69.9599 13.1591 70.3577 12.8348 70.6417 12.4134C70.9258 11.992 71.1152 11.4924 71.2099 10.9148C71.3046 10.3277 71.2786 9.81865 71.1318 9.38778C70.9898 8.95218 70.6986 8.616 70.2582 8.37926C69.8226 8.13778 69.2118 8.01705 68.4258 8.01705H65.3292L63.1702 21H61.4088ZM69.3349 14.4659L71.8349 21H69.7895L67.3463 14.4659H69.3349ZM65.0594 27.392C63.5395 27.392 62.1309 27.16 60.8335 26.696C59.5362 26.232 58.3832 25.5786 57.3747 24.7358C56.3662 23.893 55.5352 22.8963 54.8818 21.7457C54.2284 20.5999 53.7833 19.3404 53.5466 17.9673C53.3098 16.5895 53.3169 15.1383 53.5679 13.6136C53.8188 12.1174 54.2828 10.6922 54.9599 9.33807C55.6417 7.9839 56.4916 6.74337 57.5096 5.61648C58.5276 4.48485 59.6687 3.50473 60.9329 2.67614C62.2019 1.84754 63.5513 1.20597 64.9812 0.75142C66.4112 0.29214 67.8766 0.0625 69.3775 0.0625C70.8974 0.0625 72.306 0.294508 73.6034 0.758523C74.9055 1.22254 76.0608 1.87595 77.0693 2.71875C78.0778 3.56155 78.9088 4.55824 79.5622 5.70881C80.2156 6.85464 80.6583 8.11648 80.8903 9.49432C81.1271 10.8674 81.12 12.3163 80.869 13.8409C80.6228 15.3371 80.1588 16.7623 79.477 18.1165C78.7999 19.4706 77.9523 20.7112 76.9344 21.8381C75.9164 22.9697 74.7729 23.9498 73.504 24.7784C72.2398 25.607 70.8903 26.2486 69.4557 26.7031C68.0257 27.1624 66.5603 27.392 65.0594 27.392ZM65.0594 25.7443C66.3993 25.7443 67.7085 25.5384 68.9869 25.1264C70.2701 24.7145 71.4798 24.1345 72.6162 23.3864C73.7573 22.643 74.7847 21.7647 75.6986 20.7514C76.6171 19.7334 77.3818 18.6184 77.9926 17.4062C78.6081 16.1894 79.0248 14.911 79.2426 13.571C79.4651 12.25 79.477 10.9953 79.2781 9.80682C79.0792 8.61837 78.7005 7.53172 78.1417 6.54688C77.583 5.55729 76.8704 4.70265 76.004 3.98295C75.1422 3.25852 74.1503 2.69981 73.0281 2.30682C71.9107 1.90909 70.6938 1.71023 69.3775 1.71023C68.0423 1.71023 66.7331 1.91619 65.45 2.32812C64.1668 2.74006 62.9571 3.32008 61.8207 4.06818C60.6844 4.81155 59.6569 5.69223 58.7383 6.71023C57.8245 7.72348 57.0598 8.83854 56.4443 10.0554C55.8335 11.2675 55.4168 12.5436 55.1943 13.8835C54.9765 15.2045 54.967 16.4593 55.1659 17.6477C55.3648 18.8362 55.7412 19.9252 56.2952 20.9148C56.8539 21.8996 57.5641 22.7519 58.4258 23.4716C59.2923 24.196 60.2843 24.7547 61.4017 25.1477C62.5238 25.5455 63.7431 25.7443 65.0594 25.7443ZM87.9154 21H86.0688L93.8245 6.45455H95.6427L98.5688 21H96.7222L94.4211 8.75568H94.3074L87.9154 21ZM89.5347 15.3182H96.9779L96.7222 16.8807H89.279L89.5347 15.3182ZM91.4523 27.392C89.9324 27.392 88.5238 27.16 87.2265 26.696C85.9291 26.232 84.7762 25.5786 83.7677 24.7358C82.7591 23.893 81.9282 22.8963 81.2748 21.7457C80.6214 20.5999 80.1763 19.3404 79.9395 17.9673C79.7028 16.5895 79.7099 15.1383 79.9609 13.6136C80.2118 12.1174 80.6758 10.6922 81.3529 9.33807C82.0347 7.9839 82.8846 6.74337 83.9026 5.61648C84.9206 4.48485 86.0617 3.50473 87.3259 2.67614C88.5949 1.84754 89.9443 1.20597 91.3742 0.75142C92.8041 0.29214 94.2696 0.0625 95.7705 0.0625C97.2904 0.0625 98.699 0.294508 99.9964 0.758523C101.298 1.22254 102.454 1.87595 103.462 2.71875C104.471 3.56155 105.302 4.55824 105.955 5.70881C106.609 6.85464 107.051 8.11648 107.283 9.49432C107.52 10.8674 107.513 12.3163 107.262 13.8409C107.016 15.3371 106.552 16.7623 105.87 18.1165C105.193 19.4706 104.345 20.7112 103.327 21.8381C102.309 22.9697 101.166 23.9498 99.8969 24.7784C98.6327 25.607 97.2833 26.2486 95.8486 26.7031C94.4187 27.1624 92.9533 27.392 91.4523 27.392ZM91.4523 25.7443C92.7923 25.7443 94.1015 25.5384 95.3799 25.1264C96.663 24.7145 97.8728 24.1345 99.0092 23.3864C100.15 22.643 101.178 21.7647 102.092 20.7514C103.01 19.7334 103.775 18.6184 104.386 17.4062C105.001 16.1894 105.418 14.911 105.636 13.571C105.858 12.25 105.87 10.9953 105.671 9.80682C105.472 8.61837 105.093 7.53172 104.535 6.54688C103.976 5.55729 103.263 4.70265 102.397 3.98295C101.535 3.25852 100.543 2.69981 99.4211 2.30682C98.3037 1.90909 97.0868 1.71023 95.7705 1.71023C94.4353 1.71023 93.1261 1.91619 91.843 2.32812C90.5598 2.74006 89.3501 3.32008 88.2137 4.06818C87.0773 4.81155 86.0499 5.69223 85.1313 6.71023C84.2175 7.72348 83.4528 8.83854 82.8373 10.0554C82.2265 11.2675 81.8098 12.5436 81.5873 13.8835C81.3695 15.2045 81.36 16.4593 81.5589 17.6477C81.7577 18.8362 82.1341 19.9252 82.6881 20.9148C83.2468 21.8996 83.9571 22.7519 84.8188 23.4716C85.6853 24.196 86.6772 24.7547 87.7947 25.1477C88.9168 25.5455 90.136 25.7443 91.4523 25.7443ZM114.081 6.45455H116.183L119.138 18.5284H119.308L126.24 6.45455H128.342L125.928 21H124.28L126.127 9.94886H125.985L119.592 21H118.002L115.303 9.94886H115.161L113.314 21H111.666L114.081 6.45455ZM117.845 27.392C116.325 27.392 114.917 27.16 113.619 26.696C112.322 26.232 111.169 25.5786 110.161 24.7358C109.152 23.893 108.321 22.8963 107.668 21.7457C107.014 20.5999 106.569 19.3404 106.333 17.9673C106.096 16.5895 106.103 15.1383 106.354 13.6136C106.605 12.1174 107.069 10.6922 107.746 9.33807C108.428 7.9839 109.278 6.74337 110.296 5.61648C111.314 4.48485 112.455 3.50473 113.719 2.67614C114.988 1.84754 116.337 1.20597 117.767 0.75142C119.197 0.29214 120.663 0.0625 122.163 0.0625C123.683 0.0625 125.092 0.294508 126.389 0.758523C127.691 1.22254 128.847 1.87595 129.855 2.71875C130.864 3.56155 131.695 4.55824 132.348 5.70881C133.002 6.85464 133.444 8.11648 133.676 9.49432C133.913 10.8674 133.906 12.3163 133.655 13.8409C133.409 15.3371 132.945 16.7623 132.263 18.1165C131.586 19.4706 130.738 20.7112 129.72 21.8381C128.702 22.9697 127.559 23.9498 126.29 24.7784C125.026 25.607 123.676 26.2486 122.242 26.7031C120.812 27.1624 119.346 27.392 117.845 27.392ZM117.845 25.7443C119.185 25.7443 120.494 25.5384 121.773 25.1264C123.056 24.7145 124.266 24.1345 125.402 23.3864C126.543 22.643 127.571 21.7647 128.485 20.7514C129.403 19.7334 130.168 18.6184 130.779 17.4062C131.394 16.1894 131.811 14.911 132.029 13.571C132.251 12.25 132.263 10.9953 132.064 9.80682C131.865 8.61837 131.486 7.53172 130.928 6.54688C130.369 5.55729 129.656 4.70265 128.79 3.98295C127.928 3.25852 126.936 2.69981 125.814 2.30682C124.697 1.90909 123.48 1.71023 122.163 1.71023C120.828 1.71023 119.519 1.91619 118.236 2.32812C116.953 2.74006 115.743 3.32008 114.607 4.06818C113.47 4.81155 112.443 5.69223 111.524 6.71023C110.61 7.72348 109.846 8.83854 109.23 10.0554C108.619 11.2675 108.203 12.5436 107.98 13.8835C107.762 15.2045 107.753 16.4593 107.952 17.6477C108.151 18.8362 108.527 19.9252 109.081 20.9148C109.64 21.8996 110.35 22.7519 111.212 23.4716C112.078 24.196 113.07 24.7547 114.188 25.1477C115.31 25.5455 116.529 25.7443 117.845 25.7443ZM140.801 21L143.216 6.45455H151.994L151.738 8.01705H144.721L143.897 12.9318H150.46L150.204 14.4943H143.642L142.818 19.4375H149.949L149.693 21H140.801ZM144.238 27.392C142.718 27.392 141.31 27.16 140.012 26.696C138.715 26.232 137.562 25.5786 136.554 24.7358C135.545 23.893 134.714 22.8963 134.061 21.7457C133.407 20.5999 132.962 19.3404 132.725 17.9673C132.489 16.5895 132.496 15.1383 132.747 13.6136C132.998 12.1174 133.462 10.6922 134.139 9.33807C134.821 7.9839 135.671 6.74337 136.689 5.61648C137.707 4.48485 138.848 3.50473 140.112 2.67614C141.381 1.84754 142.73 1.20597 144.16 0.75142C145.59 0.29214 147.056 0.0625 148.556 0.0625C150.076 0.0625 151.485 0.294508 152.782 0.758523C154.084 1.22254 155.24 1.87595 156.248 2.71875C157.257 3.56155 158.088 4.55824 158.741 5.70881C159.395 6.85464 159.837 8.11648 160.069 9.49432C160.306 10.8674 160.299 12.3163 160.048 13.8409C159.802 15.3371 159.338 16.7623 158.656 18.1165C157.979 19.4706 157.131 20.7112 156.113 21.8381C155.095 22.9697 153.952 23.9498 152.683 24.7784C151.419 25.607 150.069 26.2486 148.635 26.7031C147.205 27.1624 145.739 27.392 144.238 27.392ZM144.238 25.7443C145.578 25.7443 146.887 25.5384 148.166 25.1264C149.449 24.7145 150.659 24.1345 151.795 23.3864C152.936 22.643 153.964 21.7647 154.877 20.7514C155.796 19.7334 156.561 18.6184 157.172 17.4062C157.787 16.1894 158.204 14.911 158.422 13.571C158.644 12.25 158.656 10.9953 158.457 9.80682C158.258 8.61837 157.879 7.53172 157.321 6.54688C156.762 5.55729 156.049 4.70265 155.183 3.98295C154.321 3.25852 153.329 2.69981 152.207 2.30682C151.09 1.90909 149.873 1.71023 148.556 1.71023C147.221 1.71023 145.912 1.91619 144.629 2.32812C143.346 2.74006 142.136 3.32008 141 4.06818C139.863 4.81155 138.836 5.69223 137.917 6.71023C137.003 7.72348 136.239 8.83854 135.623 10.0554C135.012 11.2675 134.596 12.5436 134.373 13.8835C134.155 15.2045 134.146 16.4593 134.345 17.6477C134.544 18.8362 134.92 19.9252 135.474 20.9148C136.033 21.8996 136.743 22.7519 137.605 23.4716C138.471 24.196 139.463 24.7547 140.581 25.1477C141.703 25.5455 142.922 25.7443 144.238 25.7443Z" fill="black"/>
</svg>
