<svg width="24" height="24" viewBox="0 0 24 24" fill="none" xmlns="http://www.w3.org/2000/svg">
<path d="M2.29688 7.87814V15.615C2.29688 16.7643 2.29688 17.3389 2.39377 17.8165C2.78129 19.7262 4.27381 21.2187 6.18352 21.6062C6.66104 21.7031 7.23567 21.7031 8.38493 21.7031H10.3616H15.402H15.4877C17.2085 21.7031 18.069 21.7031 18.7616 21.4639C20.0293 21.0261 21.0256 20.0299 21.4634 18.7621C21.7026 18.0695 21.7026 17.2091 21.7026 15.4882V7.87814C21.7026 7.20079 21.7026 6.86212 21.6688 6.57738C21.4047 4.35082 19.6492 2.59531 17.4226 2.3312C17.1379 2.29742 16.7992 2.29742 16.1218 2.29742H15.402H7.84136C6.1789 2.29742 5.34767 2.29742 4.68732 2.55567C3.71023 2.93779 2.93724 3.71078 2.55512 4.68787C2.29688 5.34822 2.29688 6.19153 2.29688 7.87814Z" fill="#E1E1E1"/>
<rect x="2.78125" y="2.78241" width="16.98" height="16.98" rx="3.63857" fill="white"/>
<path d="M11.5556 17.5051C13.6833 17.5051 15.1166 16.4693 15.4526 14.8735L13.2465 14.728C13.0058 15.3831 12.3899 15.7246 11.5948 15.7246C10.4022 15.7246 9.64629 14.9351 9.64629 13.6529V13.6473H15.503V12.9922C15.503 10.0695 13.7336 8.62493 11.4604 8.62493C8.9296 8.62493 7.28906 10.4222 7.28906 13.0762C7.28906 15.803 8.90721 17.5051 11.5556 17.5051ZM9.64629 12.1692C9.69668 11.1893 10.4414 10.4054 11.4996 10.4054C12.5354 10.4054 13.2521 11.1445 13.2577 12.1692H9.64629ZM10.5477 7.62829H12.2331L13.9408 5.08069H11.7348L10.5477 7.62829Z" fill="black"/>
</svg>
